PathFileType	4	(X/Y/Z)	C:/Users/beibeiliu/ov580/test_trc/User1\sequence.13_training_dense_left.trc
DataRate	CameraRate	NumFrames	NumMarkers	Units	OrigDataRate	OrigDataStartFrame	OrigNumFrames
120	120	15	19	mm	120	40	316
Frame#	Time	ThumbCMC			ThumbMCP			ThumbIP			ThumbTip			IndexMCP			IndexPIP			IndexTip			MiddleMCP			MiddlePIP			MiddleTip			RingMCP			RingPIP			RingTip			PinkyMCP			PinkyPIP			PinkyTip			BackHand1			BackHand2			BackHand3	
		X0	Y0	Z0	X1	Y1	Z1	X2	Y2	Z2	X3	Y3	Z3	X4	Y4	Z4	X5	Y5	Z5	X6	Y6	Z6	X7	Y7	Z7	X8	Y8	Z8	X9	Y9	Z9	X10	Y10	Z10	X11	Y11	Z11	X12	Y12	Z12	X13	Y13	Z13	X14	Y14	Z14	X15	Y15	Z15	X16	Y16	Z16	X17	Y17	Z17	X18	Y18	Z18	
39	0.325	-199.999	51.5019	20.6083	-170.173	50.4999	0.4633	-152.606	48.3417	-27.2023	-139.464	35.2241	-49.7354	-202.404	46.6257	-65.213	-178.672	37.6268	-77.9524	-151.146	21.6736	-59.0245	-232.807	27.137	-71.7668	-222.306	26.4551	-101.021	-209.23	19.0473	-124.573	-240.067	7.99774	-60.6044	-239.8	5.22558	-91.2762	-234.292	0.0194542	-118.416	-236.301	-24.0515	-45.5722	-236.804	-31.0835	-64.8332	-239.056	-35.6457	-90.2205	-246.472	8.90133	-4.1852	-250.325	5.55076	27.1571	-237.088	41.9344	11.9902	
40	0.333333	-202.411	57.7781	17.4695	-174.622	56.8276	-5.01795	-158.391	55.3573	-29.1877	-142.495	43.5278	-49.9789	-208.205	42.7675	-67.6537	-180.308	37.059	-78.5775	-154.838	24.036	-62.2367	-234.274	20.5562	-71.6649	-225.712	19.8094	-99.9206	-208.832	17.93	-127.171	-240.142	-2.68794	-60.788	-240.177	-3.02004	-89.6901	-231.624	-5.80383	-118.31	-231.041	-27.3154	-41.4397	-230.209	-39.0538	-60.7548	-234.299	-41.9617	-85.9478	-245.809	-1.2602	-7.32251	-249.224	1.53756	27.7702	-242.822	35.0371	9.48356	
41	0.341667	-209.254	59.0677	16.0478	-180.721	59.5903	-3.63268	-162.58	60.0831	-33.1798	-149.854	46.7668	-52.1362	-213.232	42.1237	-66.0028	-186.445	37.16	-81.1372	-157.891	27.8281	-64.9923	-235.225	13.9791	-72.9562	-226.636	14.242	-101.132	-210.592	7.15427	-127.674	-238.344	-10.271	-59.1681	-237.185	-8.92922	-88.8181	-228.809	-11.8705	-115.391	-225.112	-36.4324	-39.9176	-223.059	-44.2708	-59.8895	-225.831	-53.9081	-84.589	-242.92	-3.92543	-5.21686	-246.309	0.211896	27.7908	-243.925	33.0948	9.87451	
42	0.35	-214.522	54.7575	11.9667	-186.274	65.5666	-7.85095	-171.519	58.6603	-35.0094	-155.688	50.2901	-51.0032	-217.839	39.5418	-67.5205	-185.849	36.0128	-81.6969	-156.458	34.6367	-63.2232	-234.205	7.61199	-74.3044	-225.74	5.43977	-101.996	-208.226	6.14549	-130.771	-233.404	-16.6644	-58.7508	-231.9	-21.9529	-90.0313	-223.84	-21.009	-114.91	-217.41	-40.3989	-38.2261	-214.996	-48.503	-58.5476	-216.652	-56.6859	-81.3573	-240.279	-9.0065	-2.36022	-243.539	-6.75792	29.5403	-245.658	25.737	8.95504	
43	0.358333	-222.975	51.6034	12.7661	-197.795	62.1618	-10.155	-181.759	63.4257	-32.6578	-161.731	54.4244	-54.6964	-219.216	27.1738	-69.3143	-193.089	34.9026	-83.8065	-163.298	37.4289	-67.1151	-231.154	-3.76974	-69.7448	-223.142	-0.265877	-103.1	-205.628	-2.09802	-126.919	-226.185	-24.2497	-61.2725	-224.128	-28.6431	-86.3304	-213.553	-32.015	-113.592	-207.081	-42.8466	-39.8587	-201.594	-52.5752	-55.6952	-201.946	-60.6923	-76.4658	-235.105	-17.24	-4.68836	-238.263	-18.8039	30.7044	-247.017	16.9461	9.16664	
44	0.366667	-232.008	36.4401	15.5062	-213.449	61.563	-10.0462	-197.746	65.2182	-38.4941	-178.542	58.0981	-53.0399	-223.914	19.5188	-66.7225	-198.145	30.3583	-82.6382	-169.88	42.6101	-62.14	-225.189	-13.9775	-67.6484	-215.687	-13.9506	-97.0382	-199.705	-8.18122	-126.093	-211.359	-35.2927	-60.5454	-208.452	-37.7848	-84.4847	-197.215	-37.9754	-111.797	-189.206	-44.9363	-33.9013	-178.999	-54.2307	-55.4368	-178.588	-61.4517	-78.9223	-222.426	-29.6874	-0.765173	-228.676	-26.8346	30.6995	-246.476	-0.411097	6.44096	
45	0.375	-235.655	31.0834	14.9821	-219.684	55.867	-9.97266	-204.696	60.6975	-30.8063	-186.741	63.9863	-47.9793	-224.585	15.0208	-66.0557	-199.347	32.3377	-79.0369	-176.695	46.0769	-58.0547	-220.425	-19.2658	-69.9698	-208.618	-17.7263	-99.789	-196.598	-10.6478	-124.046	-207.617	-35.2194	-57.3944	-201.525	-38.3155	-83.2601	-190.117	-36.9448	-112.841	-178.753	-46.7573	-36.8033	-168.971	-52.5067	-51.8134	-167.923	-60.0672	-72.8672	-213.891	-37.7465	1.39414	-223.657	-34.4405	34.0792	-242.283	-9.80972	10.3917	
46	0.383333	-237.73	27.8125	14.8133	-223.066	55.6761	-5.58374	-208.051	60.8149	-28.7509	-187.314	60.6692	-47.5341	-224.627	13.547	-63.4239	-199.74	30.2375	-76.9463	-177.267	43.9663	-51.3564	-219.383	-19.5378	-68.7884	-209.276	-15.4277	-99.6451	-194.474	-9.31825	-122.614	-199.583	-39.8312	-54.8203	-198.255	-37.9864	-83.662	-185.986	-37.5497	-108.096	-173.545	-46.262	-36.3584	-167.691	-48.8369	-49.4659	-160.761	-56.1991	-71.3901	-212.687	-37.4196	-0.486363	-216.975	-38.1446	34.8849	-240.064	-13.1277	10.9169	
47	0.391667	-236.621	26.6137	18.9944	-221.479	49.9475	-2.84131	-209.553	63.8233	-28.7702	-189.536	68.016	-44.7259	-221.386	15.1882	-63.8699	-200.255	33.6554	-72.4492	-181.117	49.025	-45.0063	-215.923	-20.8086	-64.4539	-206.001	-16.9681	-95.6552	-193.772	-5.75383	-122.423	-196.981	-38.1966	-57.8162	-194.935	-36.962	-82.725	-184.376	-35.8674	-109.031	-172.1	-43.0209	-33.1773	-160.703	-48.1015	-50.7876	-155.145	-55.6324	-73.9099	-207.001	-37.6715	3.43207	-215.823	-39.9057	31.9863	-238.485	-16.561	12.1106	
48	0.4	-235.002	22.5207	24.11	-222.228	49.0382	1.30723	-211.435	64.1041	-24.7909	-189.379	63.2242	-41.8342	-220.606	14.5162	-60.5785	-195.398	34.8595	-68.3771	-180.642	47.6967	-38.9704	-211.854	-21.4046	-63.6915	-206.677	-12.6488	-95.5957	-193.195	-1.58821	-122.733	-196.394	-34.6869	-53.0502	-189.356	-39.0308	-83.6787	-184.753	-31.0133	-110.936	-165.104	-43.9778	-34.3877	-156.982	-47.3416	-53.0637	-153.151	-54.6116	-70.5285	-203.104	-40.6694	4.0083	-209.027	-41.9249	31.966	-232.046	-21.4732	15.0588	
49	0.408333	-235.298	22.952	21.983	-223.459	47.0116	2.56632	-211.711	59.7647	-21.9082	-190.656	64.8044	-41.4637	-217.905	14.9339	-60.2462	-195.421	38.1333	-64.0429	-183.55	48.6236	-35.5904	-211.145	-21.5338	-64.5508	-203.279	-14.7536	-93.0384	-188.412	-5.47895	-122.375	-192.414	-37.5344	-54.0972	-189.278	-36.8154	-83.6561	-181.341	-34.7597	-107.509	-167.307	-40.4134	-29.7946	-156.94	-44.4353	-49.9231	-148.25	-57.5759	-69.8711	-201.329	-41.5888	1.57759	-206.684	-40.7551	34.5965	-230.485	-21.7229	14.7024	
50	0.416667	-233.008	19.7636	28.4023	-224.284	47.0803	2.65116	-211.875	58.1473	-19.881	-192.467	67.0531	-40.269	-220.738	13.1048	-54.4151	-193.472	35.3949	-63.476	-183.574	48.7374	-35.6755	-208.653	-22.4492	-62.2888	-202.592	-16.4707	-92.2399	-190.513	-8.19909	-117.881	-191.257	-36.9171	-50.909	-185.414	-38.8433	-82.5121	-180.362	-34.6609	-108.825	-160.832	-41.4887	-32.3044	-151.296	-46.6602	-46.312	-148.918	-55.1054	-67.4634	-197.937	-41.5661	5.241	-201.542	-45.2945	35.3127	-227.715	-24.2974	16.0149	
51	0.425	-231.326	19.1407	29.7882	-225.099	49.1428	5.72415	-211.169	56.9429	-18.844	-190.824	64.283	-41.4294	-218.05	11.6121	-55.5696	-196.067	35.4997	-62.7307	-181.899	47.4826	-31.745	-207.742	-23.0357	-60.631	-205.322	-17.0615	-87.9994	-190.354	-9.26916	-121.438	-190.69	-36.0973	-51.1236	-187.217	-37.7229	-80.8711	-178.321	-36.9886	-103.725	-157.486	-41.8736	-27.6858	-148.741	-45.8918	-49.3925	-145.6	-52.5811	-70.0846	-195.522	-40.197	4.55176	-195.714	-44.8973	37.6946	-227.181	-24.2903	16.7739	
52	0.433333	-227.603	15.1082	27.135	-222.983	44.4967	7.4398	-211.623	58.1264	-24.4606	-190.875	62.8261	-40.2078	-215.744	8.36577	-54.6196	-194.815	33.1218	-63.3757	-181.061	45.8162	-32.2408	-204.498	-25.2436	-63.7516	-203.961	-18.4183	-88.1231	-195.094	-8.12437	-118.425	-183.628	-38.2872	-48.4108	-184.893	-38.189	-78.8189	-177.832	-37.5185	-104.871	-154.236	-40.4195	-28.5966	-145.498	-44.599	-49.5043	-138.958	-56.5504	-70.1243	-191.544	-39.1539	4.02997	-192.537	-46.2682	40.6975	-224.009	-24.932	15.7044	
53	0.441667	-227.433	16.8752	29.6027	-222.472	45.7417	1.99682	-210.808	58.5786	-23.5953	-190.909	62.4985	-38.4468	-216.015	7.48992	-54.3873	-195.709	34.086	-64.078	-183.07	47.6262	-37.5555	-206.611	-23.1706	-63.0064	-202.051	-19.165	-91.5746	-193.029	-11.7113	-118.935	-186.606	-35.7642	-51.0439	-181.986	-38.6138	-77.2783	-179.798	-36.7114	-101.53	-155.509	-39.1471	-29.7886	-146.219	-42.9329	-49.6615	-140.296	-53.6716	-68.5867	-187.81	-42.5882	8.31661	-191.367	-44.7245	38.6332	-222.701	-24.5636	15.7845	
